<svg width="778" height="615" viewBox="0 0 778 615" fill="none" xmlns="http://www.w3.org/2000/svg">
<g clip-path="url(#clip0_625_9)">
<path d="M489.207 560.518L477.446 560.517L471.851 515.15L489.209 515.151L489.207 560.518Z" fill="#9E616A"/>
<path d="M492.206 571.919L454.284 571.917V571.438C454.284 567.523 455.84 563.768 458.608 561C461.376 558.232 465.13 556.677 469.045 556.676H469.045L492.207 556.677L492.206 571.919Z" fill="#2F2E41"/>
<path d="M446.998 560.518L435.237 560.517L429.642 515.15L447 515.151L446.998 560.518Z" fill="#9E616A"/>
<path d="M449.997 571.919L412.075 571.917V571.438C412.075 567.523 413.63 563.768 416.398 561C419.166 558.232 422.921 556.677 426.835 556.676H426.836L449.998 556.677L449.997 571.919Z" fill="#2F2E41"/>
<path d="M310.023 242.624C310.963 243.917 312.175 244.988 313.573 245.762C314.972 246.535 316.523 246.993 318.117 247.102C319.712 247.211 321.311 246.97 322.802 246.394C324.293 245.818 325.64 244.923 326.747 243.77L350.019 252.859L358.99 240.063L325.946 227.69C323.887 225.958 321.264 225.041 318.574 225.114C315.884 225.186 313.315 226.243 311.352 228.084C309.389 229.925 308.169 232.422 307.925 235.102C307.68 237.781 308.426 240.458 310.023 242.624V242.624Z" fill="#9E616A"/>
<path d="M446.849 320.153L416.209 330.148L426.444 547.154L450.092 547.739L462.193 394.703L464.941 547.135L494.18 548.746L504.959 320.153H446.849Z" fill="#2F2E41"/>
<path d="M426.176 192.231L504.814 175.144L513.559 242.861L506.277 275.217L509.194 324.388C509.194 324.388 447.013 355.339 416.209 330.148C416.209 330.148 440.968 265.113 426.617 234.668L426.176 192.231Z" fill="#E4E4E4"/>
<path d="M439.794 201.809L426.175 192.231C426.175 192.231 425.371 191.117 414.022 204.386C402.672 217.654 379.649 238.761 379.649 238.761L341.277 224.37L334.286 250.201L378.882 270.985L442.02 228.816L439.794 201.809Z" fill="#E4E4E4"/>
<path d="M509.208 349.772C510.653 349.089 511.931 348.098 512.952 346.868C513.972 345.638 514.711 344.199 515.115 342.653C515.52 341.106 515.58 339.49 515.293 337.918C515.005 336.345 514.376 334.855 513.45 333.553L526.714 312.38L515.814 301.181L497.503 331.344C495.418 333.044 494.028 335.451 493.598 338.107C493.169 340.764 493.728 343.486 495.171 345.757C496.614 348.029 498.84 349.692 501.427 350.432C504.014 351.172 506.783 350.937 509.208 349.772Z" fill="#9E616A"/>
<path d="M492.549 188.484L504.814 175.144C504.814 175.144 518.481 170.384 529.647 194.979C540.812 219.573 553.283 269.461 553.283 269.461L524.125 325.629L501.481 315.51L524.125 269.064L500.163 234.668L492.549 188.484Z" fill="#E4E4E4"/>
<path d="M471.75 169.589C484.121 162.827 488.667 147.316 481.905 134.945C475.143 122.574 459.633 118.027 447.263 124.79C434.892 131.553 430.346 147.063 437.108 159.434C443.87 171.806 459.38 176.352 471.75 169.589Z" fill="#9E616A"/>
<path d="M481.032 124.362C479.824 119.293 475.598 115.292 470.737 113.416C465.876 111.539 460.463 111.557 455.326 112.43C446.799 113.879 438.836 117.557 430.99 121.197L437.038 124.09L428.693 124.569L435.141 127.904C433.419 129.215 432.109 130.992 431.367 133.025C430.624 135.057 430.48 137.26 430.952 139.372C431.284 140.754 432.171 142.277 433.592 142.325C435.309 142.383 436.205 140.382 437.407 139.154C439.006 137.521 441.532 137.158 443.797 137.466C446.062 137.774 448.21 138.645 450.444 139.127C453.27 139.716 456.189 139.683 459.001 139.032C461.812 138.38 464.448 137.126 466.727 135.354L474.768 154.718C474.692 153.988 474.786 153.25 475.043 152.562C475.299 151.874 475.711 151.255 476.246 150.752C476.782 150.25 477.426 149.878 478.129 149.666C478.831 149.454 479.574 149.407 480.298 149.529C481.022 149.651 481.708 149.939 482.302 150.37C482.896 150.801 483.383 151.363 483.724 152.013C484.065 152.663 484.251 153.384 484.268 154.118C484.285 154.852 484.131 155.58 483.82 156.245C487.301 150.994 490.101 145.028 490.198 138.729C490.294 132.43 487.17 125.794 481.451 123.151" fill="#2F2E41"/>
<path d="M185.204 515.525L174.331 532.621L180.664 510.365C167.292 496.411 148.779 486.203 148.779 486.203C148.779 486.203 125.984 523.669 132.12 546.716C138.255 569.763 154.097 574.162 170.997 569.663C187.897 565.163 199.455 553.469 193.319 530.422C191.954 525.292 188.987 520.256 185.204 515.525Z" fill="#F2F2F2"/>
<path d="M170.817 534.325L171.12 535.461C174.568 548.683 175.083 559.579 172.645 567.997C172.612 568.121 172.571 568.24 172.538 568.363L171.969 568.195L171.425 568.027C174.187 558.903 172.954 547.373 169.95 535.839C169.857 535.466 169.762 535.088 169.656 534.712C168.341 529.841 166.73 524.988 164.977 520.324C164.844 519.962 164.704 519.595 164.565 519.229C162.218 513.085 159.654 507.299 157.279 502.313C157.113 501.959 156.941 501.608 156.771 501.262C152.715 492.838 149.278 486.869 148.505 485.551C148.414 485.389 148.36 485.301 148.349 485.28L148.843 484.986L148.847 484.979L149.346 484.683C149.358 484.704 149.539 484.999 149.855 485.554C151.049 487.62 154.222 493.25 157.88 500.816C158.044 501.158 158.215 501.509 158.382 501.862C160.314 505.907 162.362 510.457 164.31 515.286C164.801 516.498 165.271 517.698 165.72 518.885C165.865 519.25 166.005 519.617 166.137 519.979C168.033 525.021 169.593 529.803 170.817 534.325Z" fill="white"/>
<path d="M157.88 500.816C157.517 500.966 157.148 501.119 156.771 501.262C155.746 501.651 154.702 501.987 153.642 502.269C149.13 503.477 144.403 503.657 139.812 502.796C139.655 503.157 139.498 503.518 139.337 503.886C144.179 504.837 149.175 504.668 153.942 503.394C155.073 503.092 156.187 502.731 157.279 502.313C157.651 502.171 158.02 502.019 158.382 501.862C161.373 500.588 164.154 498.867 166.628 496.758C166.304 496.513 165.987 496.272 165.677 496.036C163.328 498.004 160.7 499.615 157.88 500.816Z" fill="white"/>
<path d="M165.72 518.885C165.338 519.011 164.953 519.126 164.565 519.229C164.448 519.266 164.324 519.299 164.206 519.331C159.315 520.633 154.181 520.733 149.242 519.623C144.303 518.512 139.706 516.223 135.843 512.952C135.706 513.344 135.57 513.736 135.44 514.131C139.434 517.419 144.154 519.707 149.209 520.807C154.263 521.906 159.507 521.786 164.506 520.455C164.663 520.413 164.821 520.371 164.977 520.324C165.369 520.213 165.754 520.099 166.137 519.979C172.06 518.073 177.308 514.501 181.254 509.691C180.986 509.407 180.717 509.123 180.443 508.841C176.617 513.55 171.5 517.041 165.72 518.885Z" fill="white"/>
<path d="M170.817 534.325C170.433 534.463 170.045 534.591 169.656 534.712C169.239 534.841 168.82 534.965 168.398 535.077C161.823 536.82 154.86 536.385 148.553 533.839C142.245 531.293 136.932 526.773 133.408 520.954C133.277 521.477 133.143 521.994 133.023 522.514C136.776 528.256 142.243 532.669 148.647 535.126C155.052 537.583 162.067 537.96 168.698 536.202C169.119 536.09 169.54 535.972 169.95 535.839C170.346 535.721 170.734 535.594 171.12 535.461C178.905 532.722 185.359 527.126 189.174 519.807C188.945 519.423 188.701 519.048 188.455 518.668C184.835 525.982 178.509 531.598 170.817 534.325Z" fill="white"/>
<path d="M609.334 517.307L598.619 534.155L604.86 512.223C591.682 498.471 573.439 488.411 573.439 488.411C573.439 488.411 550.975 525.333 557.021 548.045C563.067 570.757 578.68 575.093 595.334 570.659C611.988 566.225 623.378 554.7 617.332 531.988C615.986 526.933 613.063 521.97 609.334 517.307Z" fill="#F2F2F2"/>
<path d="M595.157 535.834L595.455 536.954C598.853 549.984 599.361 560.722 596.958 569.018C596.925 569.139 596.885 569.257 596.852 569.378L596.292 569.213L595.755 569.047C598.477 560.055 597.262 548.693 594.302 537.326C594.21 536.959 594.117 536.586 594.012 536.216C592.717 531.416 591.129 526.633 589.401 522.037C589.27 521.68 589.133 521.319 588.995 520.958C586.683 514.903 584.156 509.201 581.815 504.287C581.652 503.939 581.482 503.593 581.314 503.251C577.318 494.95 573.93 489.069 573.169 487.77C573.079 487.61 573.026 487.523 573.015 487.502L573.501 487.212L573.506 487.205L573.998 486.914C574.009 486.935 574.188 487.225 574.499 487.772C575.676 489.808 578.803 495.356 582.408 502.812C582.569 503.149 582.738 503.496 582.902 503.844C584.806 507.829 586.824 512.313 588.744 517.072C589.228 518.267 589.691 519.449 590.133 520.619C590.277 520.979 590.414 521.34 590.545 521.697C592.413 526.665 593.951 531.378 595.157 535.834Z" fill="white"/>
<path d="M582.408 502.812C582.05 502.961 581.686 503.111 581.314 503.252C580.304 503.635 579.275 503.966 578.231 504.244C573.784 505.435 569.126 505.612 564.602 504.763C564.447 505.119 564.292 505.475 564.134 505.838C568.906 506.775 573.829 506.609 578.527 505.353C579.641 505.056 580.739 504.7 581.816 504.287C582.182 504.148 582.546 503.998 582.902 503.844C585.85 502.588 588.59 500.892 591.029 498.813C590.709 498.572 590.397 498.335 590.091 498.102C587.776 500.042 585.187 501.629 582.408 502.812Z" fill="white"/>
<path d="M590.133 520.619C589.757 520.743 589.377 520.856 588.995 520.958C588.88 520.994 588.758 521.027 588.642 521.058C583.821 522.341 578.762 522.44 573.895 521.346C569.028 520.251 564.498 517.996 560.691 514.772C560.556 515.158 560.421 515.544 560.294 515.934C564.23 519.174 568.881 521.429 573.862 522.513C578.843 523.596 584.011 523.478 588.937 522.166C589.092 522.125 589.247 522.084 589.401 522.037C589.787 521.928 590.167 521.815 590.545 521.697C596.381 519.818 601.553 516.298 605.442 511.558C605.177 511.278 604.913 510.999 604.643 510.72C600.873 515.362 595.83 518.802 590.133 520.619Z" fill="white"/>
<path d="M595.157 535.834C594.778 535.971 594.396 536.096 594.012 536.216C593.601 536.343 593.188 536.465 592.773 536.576C586.293 538.293 579.432 537.865 573.216 535.356C567 532.847 561.764 528.392 558.291 522.658C558.161 523.173 558.03 523.683 557.911 524.195C561.61 529.854 566.998 534.202 573.309 536.624C579.62 539.045 586.534 539.417 593.068 537.684C593.484 537.574 593.898 537.457 594.302 537.326C594.692 537.21 595.074 537.085 595.455 536.954C603.127 534.255 609.487 528.74 613.247 521.528C613.021 521.149 612.781 520.78 612.538 520.405C608.971 527.613 602.737 533.147 595.157 535.834Z" fill="white"/>
<path d="M387.565 98.747C387.565 58.4477 359.472 25.7787 324.817 25.7787C290.162 25.7787 262.069 58.4477 262.069 98.747C262.069 135.297 285.178 165.569 315.332 170.886V177.762C315.332 179.061 315.848 180.307 316.766 181.226C317.685 182.144 318.93 182.66 320.229 182.661H329.405C330.704 182.66 331.949 182.144 332.868 181.226C333.786 180.307 334.302 179.061 334.302 177.762V170.886C364.456 165.569 387.565 135.297 387.565 98.747Z" fill="#00ABB3"/>
<path d="M313.823 176.769C315.787 174.925 318.126 173.527 320.68 172.673C323.234 171.819 325.943 171.527 328.621 171.818C331.319 172.131 333.908 173.066 336.184 174.55C338.459 176.034 340.359 178.027 341.733 180.37C343.108 182.644 343.971 185.189 344.264 187.83C344.557 190.471 344.271 193.144 343.427 195.664C341.778 200.689 338.272 204.87 334.678 208.639C330.907 212.593 326.806 216.24 323.261 220.407C317.416 227.319 313.334 235.546 311.366 244.383C309.398 253.219 309.602 262.401 311.962 271.141C315.072 282.219 321.494 292.081 330.367 299.406C331.494 300.326 332.654 301.203 333.848 302.037C335.23 303.004 336.538 300.738 335.168 299.779C325.534 292.963 318.415 283.163 314.911 271.895C312.254 263.113 311.914 253.794 313.924 244.842C315.934 235.89 320.226 227.611 326.383 220.809C330.122 216.68 334.309 212.984 338.047 208.854C341.628 204.897 344.893 200.434 346.292 195.206C347 192.549 347.175 189.777 346.808 187.051C346.441 184.326 345.538 181.699 344.152 179.324C342.773 176.895 340.906 174.778 338.67 173.105C336.434 171.431 333.876 170.238 331.157 169.599C325.687 168.41 319.969 169.4 315.218 172.359C314.054 173.102 312.967 173.96 311.975 174.92C310.76 176.089 312.611 177.937 313.823 176.769V176.769Z" fill="#3F3D56"/>
<path d="M145.765 68.1912C126.566 24.0513 80.2308 1.65502 42.2731 18.1678C4.3153 34.6805 -10.8911 83.8492 8.30843 127.989C25.7216 168.022 65.4556 190.168 101.016 181.624L104.293 189.156C104.911 190.578 106.07 191.697 107.514 192.266C108.957 192.834 110.568 192.806 111.99 192.187L122.04 187.815C123.463 187.196 124.581 186.037 125.15 184.593C125.718 183.15 125.69 181.539 125.071 180.116L121.795 172.585C152.289 152.393 163.179 108.224 145.765 68.1912Z" fill="#00ABB3"/>
<path d="M101.974 188.561C103.222 185.687 105.059 183.107 107.367 180.989C109.676 178.87 112.403 177.26 115.373 176.263C118.289 175.28 121.385 174.948 124.444 175.287C127.502 175.627 130.449 176.632 133.079 178.23C135.788 179.835 138.124 181.999 139.931 184.578C141.738 187.157 142.974 190.092 143.558 193.187C144.898 200.358 142.724 207.663 140.253 214.341C137.663 221.34 134.435 228.138 132.634 235.406C130.128 245.622 130.078 256.286 132.487 266.526C134.896 276.765 139.696 286.288 146.494 294.314C155.056 304.237 166.333 311.439 178.936 315.034C180.482 315.469 182.044 315.841 183.618 316.16C185.261 316.493 185.964 313.973 184.313 313.639C171.2 310.939 159.25 304.232 150.116 294.443C140.433 283.974 134.583 270.532 133.521 256.31C132.953 249.104 133.613 241.854 135.474 234.87C137.461 227.5 140.824 220.6 143.359 213.419C145.778 206.567 147.492 199.209 145.972 191.958C144.575 185.573 140.701 180.004 135.201 176.474C132.565 174.736 129.61 173.539 126.508 172.953C123.406 172.366 120.218 172.403 117.129 173.059C110.823 174.488 105.297 178.266 101.677 183.625C100.796 184.961 100.051 186.382 99.4534 187.866C98.8106 189.419 101.339 190.096 101.975 188.561L101.974 188.561Z" fill="#3F3D56"/>
<path d="M682.086 601.339L696.179 601.338L702.882 546.975L682.083 546.976L682.086 601.339Z" fill="#FFB6B6"/>
<path d="M678.491 596.737L706.245 596.736H706.246C710.937 596.736 715.435 598.599 718.752 601.916C722.069 605.234 723.933 609.732 723.933 614.423V614.998L678.492 615L678.491 596.737Z" fill="#2F2E41"/>
<path d="M598.672 589.354L612.109 593.603L634.896 543.796L615.065 537.522L598.672 589.354Z" fill="#FFB6B6"/>
<path d="M596.632 583.882L623.094 592.252L623.095 592.253C627.567 593.668 631.294 596.802 633.456 600.965C635.618 605.128 636.038 609.979 634.624 614.452L634.451 615L591.125 601.295L596.632 583.882Z" fill="#2F2E41"/>
<path d="M630.404 353.062L622.583 375.12L622.362 494.203L600.184 575.735L627.408 583.333L657.481 506.456L667.126 438.931L679.837 506.848L678.088 587.573H706.652L708.808 463.175C709.413 428.239 703.301 393.512 690.802 360.883V360.883L630.404 353.062Z" fill="#2F2E41"/>
<path d="M621.09 263.71H667.26L686.551 283.003L692.315 362.751L622.584 373.973L600.183 297.882L612.382 265.543L621.09 263.71Z" fill="#E4E4E4"/>
<path d="M604.486 298.643L533.401 271.895L531.551 260.839L576.381 222.902L591.302 234.095L564.257 263.71L612.382 265.543L604.486 298.643Z" fill="#E4E4E4"/>
<path d="M585.003 238.419C591.351 238.419 596.498 233.272 596.498 226.923C596.498 220.574 591.351 215.427 585.003 215.427C578.654 215.427 573.507 220.574 573.507 226.923C573.507 233.272 578.654 238.419 585.003 238.419Z" fill="#FFB6B6"/>
<path d="M611.662 241.405L616.856 217.981C617.767 213.856 619.481 209.95 621.902 206.488C624.323 203.026 627.402 200.075 630.964 197.803C634.526 195.532 638.501 193.985 642.661 193.25C646.821 192.516 651.085 192.609 655.209 193.523C659.334 194.438 663.237 196.157 666.697 198.581C670.157 201.005 673.105 204.088 675.373 207.652C677.64 211.216 679.184 215.193 679.914 219.354C680.644 223.515 680.547 227.779 679.628 231.903L674.434 255.327C674.185 256.445 673.503 257.418 672.537 258.033C671.571 258.648 670.401 258.855 669.283 258.609L614.943 246.557C613.825 246.308 612.852 245.625 612.237 244.66C611.622 243.694 611.415 242.524 611.662 241.405Z" fill="#2F2E41"/>
<path d="M647.447 250.235C659.951 246.612 667.15 233.538 663.527 221.034C659.904 208.53 646.831 201.33 634.328 204.953C621.824 208.577 614.626 221.65 618.248 234.154C621.871 246.659 634.944 253.858 647.447 250.235Z" fill="#FFB6B6"/>
<path d="M609.016 218.208C610.483 211.627 614.5 205.897 620.187 202.274C625.874 198.651 632.765 197.433 639.349 198.885L644.034 199.924C650.615 201.391 656.345 205.409 659.967 211.097C663.59 216.784 664.808 223.676 663.356 230.26L663.252 230.729L653.352 228.533L652.072 218.328L649.3 227.634L644.184 226.5L643.538 221.351L642.139 226.046L608.912 218.677L609.016 218.208Z" fill="#2F2E41"/>
<path d="M632.815 253.284C632.49 252.552 632.378 251.742 632.492 250.949C632.607 250.156 632.943 249.411 633.463 248.801C640.521 240.459 651.341 224.552 644.501 211.745L644.009 210.825L670.793 216.765L661.875 256.98L636.592 255.877C636.336 255.866 636.082 255.832 635.832 255.777C635.167 255.63 634.548 255.327 634.023 254.894C633.499 254.46 633.085 253.909 632.815 253.284Z" fill="#2F2E41"/>
<path d="M665.423 264.193L740.617 274.885L744.822 285.277L709.285 332.034L692.292 324.345L712.27 289.569L664.894 298.218L665.423 264.193Z" fill="#E4E4E4"/>
<path d="M778 112.603C778 64.4682 744.444 25.4469 703.051 25.4469C661.657 25.4469 628.101 64.4682 628.101 112.603C628.101 156.26 655.704 192.419 691.721 198.77V206.983C691.721 208.535 692.337 210.023 693.434 211.12C694.531 212.217 696.019 212.833 697.571 212.834H708.53C710.082 212.833 711.57 212.217 712.667 211.12C713.764 210.023 714.38 208.535 714.38 206.983V198.77C750.397 192.419 778 156.26 778 112.603Z" fill="#00ABB3"/>
<path d="M689.739 205.616C692.119 203.379 694.956 201.686 698.054 200.654C701.153 199.622 704.438 199.276 707.684 199.639C710.872 200.014 713.933 201.111 716.635 202.845C719.337 204.579 721.609 206.905 723.279 209.647C724.978 212.353 726.071 215.396 726.483 218.565C726.894 221.734 726.614 224.954 725.662 228.005C723.813 233.993 719.754 239.006 715.523 243.5C711.01 248.295 706.066 252.678 701.75 257.659C694.716 265.835 689.773 275.597 687.345 286.105C684.917 296.614 685.078 307.555 687.813 317.988C691.472 331.397 699.204 343.339 709.941 352.165C711.245 353.227 712.587 354.239 713.966 355.202C715.348 356.168 716.656 353.903 715.286 352.944C703.788 344.817 695.272 333.143 691.043 319.712C687.832 309.228 687.377 298.094 689.722 287.383C692.067 276.672 697.133 266.747 704.431 258.564C708.867 253.613 713.863 249.201 718.349 244.297C722.645 239.601 726.589 234.328 728.354 228.123C729.243 224.989 729.501 221.709 729.114 218.474C728.727 215.24 727.702 212.114 726.099 209.278C724.503 206.378 722.325 203.838 719.701 201.819C717.078 199.801 714.065 198.346 710.853 197.546C704.325 196.045 697.469 197.182 691.775 200.71C690.379 201.593 689.077 202.618 687.891 203.767C686.678 204.938 688.528 206.786 689.739 205.616Z" fill="#3F3D56"/>
<path d="M698.804 345.331C705.153 345.331 710.299 340.184 710.299 333.835C710.299 327.486 705.153 322.339 698.804 322.339C692.456 322.339 687.309 327.486 687.309 333.835C687.309 340.184 692.456 345.331 698.804 345.331Z" fill="#FFB6B6"/>
<path d="M579.018 230.15C578.415 231.104 576.954 230.965 576.133 230.369C574.994 229.542 575.363 227.948 576.147 227.006C578.64 224.013 582.764 227.173 583.32 230.146C583.527 231.595 583.303 233.073 582.678 234.397C582.053 235.72 581.052 236.831 579.802 237.592C576.957 239.277 573.262 238.432 570.817 236.414C565.715 232.206 567.104 223.779 572.771 220.735C576.387 218.791 580.959 219.644 584.521 221.272C588.532 223.104 591.98 225.913 595.688 228.254C603.825 233.347 613.03 236.491 622.583 237.438C624.255 237.608 624.243 234.992 622.583 234.823C617.289 234.276 612.092 233.024 607.129 231.102C602.219 229.112 597.559 226.553 593.243 223.48C588.877 220.487 584.315 217.579 578.911 217.084C576.731 216.83 574.521 217.157 572.508 218.033C570.495 218.909 568.75 220.302 567.45 222.072C566.294 223.655 565.52 225.485 565.188 227.417C564.857 229.349 564.978 231.332 565.542 233.21C566.221 235.174 567.408 236.923 568.982 238.278C570.557 239.634 572.462 240.548 574.505 240.928C576.472 241.3 578.505 241.048 580.322 240.209C582.138 239.369 583.648 237.984 584.639 236.246C586.628 232.806 586.564 228.184 583.559 225.332C582.698 224.457 581.62 223.826 580.435 223.504C579.251 223.181 578.002 223.179 576.816 223.498C575.723 223.867 574.762 224.547 574.049 225.454C573.337 226.36 572.904 227.455 572.804 228.604C572.514 233.07 578.853 235.303 581.275 231.47C582.177 230.044 579.915 228.73 579.018 230.15Z" fill="#3F3D56"/>
<path d="M55.9472 370.669L52.4943 375.002L40.281 367.776L43.7339 363.443L55.9472 370.669Z" fill="#E4E4E4"/>
<path d="M68.6911 389.286L71.7414 393.838L58.9111 400.22L55.8608 395.668L68.6911 389.286Z" fill="#E4E4E4"/>
<path d="M81.973 369.496L88.0683 369.711L87.4618 382.466L81.3665 382.25L81.973 369.496Z" fill="#E4E4E4"/>
<path d="M199.746 25.529L196.293 29.8616L184.079 22.6363L187.532 18.3029L199.746 25.529Z" fill="#E4E4E4"/>
<path d="M212.49 44.1456L215.54 48.6978L202.71 55.0803L199.659 50.5281L212.49 44.1456Z" fill="#E4E4E4"/>
<path d="M225.771 24.356L231.867 24.5712L231.26 37.3257L225.165 37.1104L225.771 24.356Z" fill="#E4E4E4"/>
<path d="M538.761 70.8504L535.309 75.183L523.095 67.9577L526.548 63.6243L538.761 70.8504Z" fill="#E4E4E4"/>
<path d="M551.505 89.4671L554.556 94.0193L541.725 100.402L538.675 95.8496L551.505 89.4671Z" fill="#E4E4E4"/>
<path d="M564.787 69.6773L570.882 69.8926L570.276 82.6471L564.181 82.4318L564.787 69.6773Z" fill="#E4E4E4"/>
<path d="M435.052 7.22615L431.599 11.5587L419.386 4.33343L422.839 0L435.052 7.22615Z" fill="#E4E4E4"/>
<path d="M447.796 25.8428L450.846 30.395L438.016 36.7774L434.966 32.2252L447.796 25.8428Z" fill="#E4E4E4"/>
<path d="M461.078 6.05298L467.173 6.26826L466.567 19.0227L460.471 18.8075L461.078 6.05298Z" fill="#E4E4E4"/>
<path d="M540.492 332.938L537.039 337.968L549.252 346.355L552.706 341.325L540.492 332.938Z" fill="#E4E4E4"/>
<path d="M552.619 370.342L555.669 375.625L568.5 368.217L565.449 362.934L552.619 370.342Z" fill="#E4E4E4"/>
<path d="M578.124 354.768L584.22 355.017L584.827 340.213L578.731 339.963L578.124 354.768Z" fill="#E4E4E4"/>
<path d="M281.408 561.176L291.967 559.543L284.728 475.175L261.197 479.533L281.408 561.176Z" fill="#FFB6B6"/>
<path d="M278.181 558.145L298.976 554.929L298.977 554.929C302.491 554.385 306.078 555.261 308.947 557.362C311.817 559.463 313.734 562.618 314.277 566.132L314.344 566.563L280.297 571.828L278.181 558.145Z" fill="#2F2E41"/>
<path d="M170.433 560.13L181.108 560.584L194.091 485.633L170.561 485.634L170.433 560.13Z" fill="#FFB6B6"/>
<path d="M167.859 556.528L188.881 557.424H188.882C192.435 557.575 195.783 559.132 198.188 561.752C200.593 564.372 201.859 567.84 201.708 571.393L201.69 571.828L167.27 570.362L167.859 556.528Z" fill="#2F2E41"/>
<path d="M191.45 315.935C190.946 315.793 190.431 315.697 189.91 315.648L196.564 261.174L219.144 213.353C220.565 210.345 220.792 206.91 219.78 203.741C218.767 200.572 216.591 197.904 213.689 196.277C210.788 194.65 207.377 194.183 204.146 194.972C200.914 195.76 198.101 197.745 196.275 200.526V200.526C190.357 209.537 185.881 219.416 183.007 229.807L173.52 264.109L180.457 322.933C180.191 324.591 180.41 326.29 181.087 327.827C181.764 329.364 182.871 330.672 184.274 331.594C185.677 332.517 187.317 333.014 188.996 333.026C190.675 333.038 192.322 332.565 193.738 331.664C195.155 330.762 196.28 329.47 196.98 327.943C197.68 326.417 197.923 324.721 197.681 323.059C197.44 321.397 196.723 319.841 195.617 318.577C194.512 317.313 193.065 316.395 191.45 315.935H191.45Z" fill="#FFB6B6"/>
<path d="M205.16 265.785L176.632 233.148L190.765 199.905C192.615 195.551 196.094 192.094 200.458 190.27C204.822 188.446 209.726 188.4 214.124 190.142C218.521 191.883 222.064 195.275 223.996 199.593C225.928 203.91 226.096 208.812 224.464 213.252L205.16 265.785Z" fill="#2F2E41"/>
<path d="M252.582 161.74C259.445 149.184 254.831 133.44 242.275 126.576C229.72 119.712 213.978 124.327 207.114 136.883C200.251 149.44 204.865 165.183 217.421 172.047C229.976 178.911 245.718 174.296 252.582 161.74Z" fill="#FFB6B6"/>
<path d="M234.18 117.833H217.444C206.472 117.833 197.577 127.84 197.577 140.185L198.352 170.127C210.207 171.602 221.803 174.703 232.812 179.344L234.374 172.673L237.455 181.459C240.196 182.787 242.913 184.239 245.607 185.815C242.463 171.041 241.169 156.301 243.327 144.851H248.996V138.647L250.92 144.851H261.197V144.851C261.197 141.303 260.498 137.79 259.141 134.512C257.783 131.234 255.793 128.255 253.284 125.746C250.775 123.237 247.797 121.247 244.519 119.889C241.241 118.532 237.728 117.833 234.18 117.833Z" fill="#2F2E41"/>
<path d="M288.752 479.758L286.327 480.343L284.292 442.491L269.476 329.188L252.482 286.045L260.761 255.976C260.761 255.976 270.348 235.058 246.382 218.934L227.208 186.687C213.964 178.026 203.067 183.689 197.259 198.409C192.198 211.235 188.268 227.461 190.605 244.21C195.84 281.727 200.192 286.045 200.192 286.045C200.192 286.045 167.51 322.215 174.482 368.408L170.597 488.008L167.042 487.862L166.652 497.362L197.71 498.635L198.099 489.136L195.523 489.03L206.728 441.62L223.287 378.867L252.046 455.565L261.72 486.269L258.533 487.037L260.759 496.28L290.978 489.002L288.752 479.758Z" fill="#2F2E41"/>
<path d="M310.094 264.991C309.743 265.379 309.426 265.797 309.149 266.241L263.392 235.948L230.702 194.38C228.646 191.764 225.674 190.027 222.387 189.516C219.1 189.006 215.741 189.762 212.989 191.63C210.237 193.499 208.296 196.342 207.557 199.586C206.818 202.829 207.337 206.233 209.009 209.109C214.426 218.43 221.263 226.849 229.274 234.063L255.721 257.877L311.443 277.954C312.807 278.933 314.425 279.496 316.103 279.577C317.78 279.658 319.445 279.252 320.897 278.409C322.349 277.566 323.526 276.321 324.287 274.824C325.049 273.327 325.361 271.642 325.187 269.972C325.014 268.302 324.361 266.718 323.308 265.41C322.255 264.102 320.846 263.126 319.252 262.6C317.657 262.073 315.945 262.019 314.32 262.444C312.695 262.868 311.228 263.753 310.094 264.991H310.094Z" fill="#FFB6B6"/>
<path d="M271.357 230.318L229.415 241.259L205.991 213.762C202.924 210.161 201.385 205.504 201.703 200.785C202.021 196.065 204.171 191.657 207.694 188.501C211.217 185.344 215.834 183.69 220.56 183.891C225.286 184.091 229.746 186.131 232.988 189.575L271.357 230.318Z" fill="#2F2E41"/>
<path d="M596.454 572.716H32.3331C32.0579 572.716 31.7939 572.607 31.5993 572.412C31.4047 572.218 31.2954 571.954 31.2954 571.678C31.2954 571.403 31.4047 571.139 31.5993 570.945C31.7939 570.75 32.0579 570.641 32.3331 570.641H596.454C596.729 570.641 596.993 570.75 597.187 570.945C597.382 571.139 597.491 571.403 597.491 571.678C597.491 571.954 597.382 572.218 597.187 572.412C596.993 572.607 596.729 572.716 596.454 572.716Z" fill="#CACACA"/>
</g>
<defs>
<clipPath id="clip0_625_9">
<rect width="778" height="615" fill="white"/>
</clipPath>
</defs>
</svg>
